<svg viewBox="0 0 61 68" fill="none" xmlns="http://www.w3.org/2000/svg">
<path d="M1.66666 66.4798V11.1029C1.66666 5.93354 5.85727 1.74292 11.0267 1.74292H22.5991C27.7684 1.74292 31.9591 5.93353 31.9591 11.1029V57.1198C31.9591 62.2891 36.1497 66.4798 41.3191 66.4798H50.7277C55.8971 66.4798 60.0877 62.2891 60.0877 57.1198V1.74292" stroke="#F9A60B" stroke-width="1.57895" stroke-dasharray="3.16 3.16"/>
<path d="M49.8133 55.07C51.2438 56.5005 53.5632 56.5005 54.9937 55.07C56.4242 53.6394 56.4242 51.3201 54.9937 49.8896L46.1492 41.0452C45.083 39.9789 44.8776 38.0579 45.5738 36.1185C46.1302 34.5686 46.4035 32.931 46.4035 31.2166C46.4035 26.9831 44.9194 23.3417 41.9674 20.3896C39.0153 17.4375 35.3739 15.9535 31.1403 15.9535C26.9068 15.9535 23.2654 17.4375 20.3133 20.3896C17.3612 23.3417 15.8772 26.9831 15.8772 31.2166C15.8772 35.4502 17.3612 39.0915 20.3133 42.0436C23.2654 44.9957 26.9068 46.4798 31.1403 46.4798C32.8547 46.4798 34.4923 46.2065 36.0422 45.6501C37.9816 44.9539 39.9026 45.1593 40.9689 46.2255L49.8133 55.07ZM36.7344 36.8107C35.1918 38.3533 33.3579 39.1114 31.1403 39.1114C28.9227 39.1114 27.0889 38.3533 25.5463 36.8107C24.0037 35.268 23.2456 33.4342 23.2456 31.2166C23.2456 28.999 24.0037 27.1652 25.5463 25.6226C27.0889 24.0799 28.9227 23.3219 31.1403 23.3219C33.3579 23.3219 35.1918 24.0799 36.7344 25.6226C38.277 27.1652 39.0351 28.999 39.0351 31.2166C39.0351 33.4342 38.277 35.268 36.7344 36.8107Z" fill="#F9A60B" stroke="white" stroke-width="3.15789"/>
</svg>
