<svg viewBox="0 0 67 68" fill="none" xmlns="http://www.w3.org/2000/svg">
<circle cx="33.4912" cy="33.9008" r="32.3684" stroke="#B3A0FF" stroke-width="1.57895" stroke-dasharray="3.16 3.16"/>
<path d="M44.8117 41.3981C43.4124 40.4882 41.8989 39.7438 40.2749 39.1638C38.1096 38.3905 35.8454 38.0061 33.4912 38.0061C31.1371 38.0061 28.8728 38.3905 26.7075 39.1638C25.0835 39.7438 23.57 40.4882 22.1708 41.3981C21.5921 40.5429 21.1136 39.6127 20.7354 38.6043C20.1902 37.1503 19.9123 35.5865 19.9123 33.9008C19.9123 30.1168 21.2242 26.9429 23.8788 24.2883C26.5333 21.6338 29.7072 20.3219 33.4912 20.3219C37.2752 20.3219 40.4491 21.6338 43.1037 24.2883C45.7583 26.9429 47.0702 30.1168 47.0702 33.9008C47.0702 35.5865 46.7923 37.1503 46.247 38.6043C45.8689 39.6127 45.3903 40.5429 44.8117 41.3981ZM27.6616 34.9936C29.2465 36.5785 31.2234 37.3745 33.4912 37.3745C35.759 37.3745 37.736 36.5785 39.3209 34.9936C40.9057 33.4087 41.7017 31.4318 41.7017 29.164C41.7017 26.8961 40.9057 24.9192 39.3209 23.3343C37.736 21.7494 35.759 20.9534 33.4912 20.9534C31.2234 20.9534 29.2465 21.7494 27.6616 23.3343C26.0767 24.9192 25.2807 26.8961 25.2807 29.164C25.2807 31.4318 26.0767 33.4087 27.6616 34.9936ZM25.4762 52.8058C27.9877 53.8895 30.6647 54.4271 33.4912 54.4271C36.3178 54.4271 38.9948 53.8895 41.5063 52.8058C43.9871 51.7353 46.1608 50.2747 48.013 48.4226C49.8651 46.5704 51.3257 44.3967 52.3962 41.9158C53.4799 39.4044 54.0175 36.7274 54.0175 33.9008C54.0175 31.0742 53.4799 28.3972 52.3962 25.8858C51.3257 23.4049 49.8651 21.2312 48.013 19.3791C46.1608 17.5269 43.9871 16.0663 41.5063 14.9958C38.9948 13.9121 36.3178 13.3745 33.4912 13.3745C30.6647 13.3745 27.9877 13.9121 25.4762 14.9958C22.9953 16.0663 20.8216 17.5269 18.9695 19.3791C17.1173 21.2312 15.6567 23.4049 14.5862 25.8858C13.5025 28.3972 12.9649 31.0742 12.9649 33.9008C12.9649 36.7274 13.5025 39.4044 14.5862 41.9158C15.6567 44.3967 17.1173 46.5704 18.9695 48.4226C20.8216 50.2747 22.9953 51.7353 25.4762 52.8058Z" fill="#B3A0FF" stroke="white" stroke-width="3.15789"/>
</svg>
