<svg viewBox="0 0 61 69" fill="none" xmlns="http://www.w3.org/2000/svg">
<path d="M60.04 1.74292H10.4737C5.24151 1.74292 1 5.98443 1 11.2166V15.708C1 20.9402 5.24151 25.1817 10.4737 25.1817H50.5663C55.7985 25.1817 60.04 29.4232 60.04 34.6554V39.1468C60.04 44.3789 55.7985 48.6205 50.5663 48.6205H10.4737C5.24151 48.6205 1 52.862 1 58.0941V60.0629C1 64.437 4.54591 67.9829 8.92 67.9829V67.9829C13.2941 67.9829 16.84 64.437 16.84 60.0629V58.3956" stroke="#1ABC9C" stroke-width="1.57895" stroke-dasharray="3.16 3.16"/>
<path d="M39.6605 29.0809L41.034 30.0117L41.8957 28.5938L43.5702 25.8381C44.245 24.7276 44.4208 23.4923 44.1114 22.2321C43.8093 21.0016 43.1244 19.9895 42.0801 19.2728L41.2237 20.5206L42.0801 19.2728L39.4682 17.48C38.3948 16.7433 37.1696 16.502 35.8969 16.7754C34.6242 17.0489 33.6062 17.7721 32.9302 18.8847L34.2462 19.6844L32.9302 18.8847L31.285 21.592L30.5047 22.8761L31.7486 23.7191L39.6605 29.0809ZM40.2004 31.438L40.9761 30.1615L39.7445 29.3162L31.8153 23.874L30.4392 22.9295L29.5725 24.3559L17.1163 44.8543L16.7899 45.3914L16.9219 46.0059L18.3894 52.8364L18.721 54.3801L20.2648 54.0484L26.7265 52.6602L27.3911 52.5174L27.7442 51.9364L40.2004 31.438Z" fill="#1ABC9C" stroke="white" stroke-width="3.15789"/>
</svg>
